<svg xmlns="http://www.w3.org/2000/svg" width="20" height="17" viewBox="0 0 20 17">
    <g fill="#B64597" fill-rule="nonzero" opacity=".5">
        <path d="M19.677 16.634c-.979-1.168-.742-2.757-.51-3.615.22-.535.343-1.105.343-1.701 0-1.064-.38-2.054-1.026-2.883-.63 3.87-4.515 6.867-9.237 6.94 1.085.755 2.476 1.21 3.994 1.21a7.17 7.17 0 0 0 3.05-.67c1.386.92 3.112 1.045 3.112 1.045.746 0 .274-.326.274-.326z"/>
        <path d="M17.773 7.334c0-3.998-3.904-7.251-8.702-7.251C4.272.083.368 3.336.368 7.333c0 .782.157 1.564.466 2.322.359 1.307.714 3.653-.651 5.467.464-.049 2.547-.326 4.231-1.44l.192-.127.207.098c1.298.609 2.77.932 4.258.932 4.798 0 8.702-3.254 8.702-7.251z"/>
    </g>
</svg>
