<svg xmlns="http://www.w3.org/2000/svg" width="37" height="42" viewBox="0 0 37 42">
    <g fill="none" fill-rule="nonzero">
        <path fill="#4DB6AC" d="M.744.045C.308.158 0 .532 0 1.177v39.869c0 .468.208.782.528.898L21.83 20.877.744.045z"/>
        <path fill="#DCE775" d="M27.695 15.078l-8.769-5.036L1.888.256C1.478.021 1.076-.04.744.046l21.087 20.831 5.864-5.799z"/>
        <path fill="#D32F2F" d="M1.496 41.792l26.246-15.075-5.912-5.84L.528 41.944c.262.096.597.06.968-.152z"/>
        <path fill="#FBC02D" d="M36.309 20.025c-.84-.45-8.55-4.91-8.55-4.91l-.064-.037-5.865 5.8 5.912 5.84c4.678-2.688 8.192-4.705 8.507-4.886.996-.572.9-1.357.06-1.807z"/>
    </g>
</svg>
