<svg xmlns="http://www.w3.org/2000/svg" width="50" height="50" viewBox="0 0 50 50">
    <defs>
        <linearGradient id="a" x1="50%" x2="50%" y1="-15.931%" y2="100%">
            <stop offset="0%" stop-color="#DB4091"/>
            <stop offset="100%" stop-color="#97499C"/>
        </linearGradient>
    </defs>
    <g fill="none" fill-rule="evenodd">
        <path fill="url(#a)" d="M17.947 0h14.106c6.24 0 8.503.65 10.785 1.87a12.721 12.721 0 0 1 5.292 5.292C49.35 9.444 50 11.707 50 17.947v14.106c0 6.24-.65 8.503-1.87 10.785a12.721 12.721 0 0 1-5.292 5.292C40.556 49.35 38.293 50 32.053 50H17.947c-6.24 0-8.503-.65-10.785-1.87a12.721 12.721 0 0 1-5.292-5.292C.65 40.556 0 38.293 0 32.053V17.947c0-6.24.65-8.503 1.87-10.785A12.721 12.721 0 0 1 7.162 1.87C9.444.65 11.707 0 17.947 0z"/>
        <path fill="#FFF" fill-rule="nonzero" d="M34.477 25.932L19.598 34.85a1.05 1.05 0 0 1-1.452-.384 1.097 1.097 0 0 1-.146-.548V16.08c0-.597.475-1.081 1.06-1.081.19 0 .375.052.538.15l14.879 8.918a1.092 1.092 0 0 1 0 1.864z"/>
    </g>
</svg>
