<svg xmlns="http://www.w3.org/2000/svg" width="362" height="312" viewBox="0 0 362 312">
    <defs>
        <filter id="a" width="109%" height="110%" x="-4.5%" y="-5%" filterUnits="objectBoundingBox">
            <feOffset dy="2" in="SourceAlpha" result="shadowOffsetOuter1"/>
            <feGaussianBlur in="shadowOffsetOuter1" result="shadowBlurOuter1" stdDeviation="2"/>
            <feColorMatrix in="shadowBlurOuter1" result="shadowMatrixOuter1" values="0 0 0 0 0 0 0 0 0 0 0 0 0 0 0 0 0 0 0.2 0"/>
            <feMerge>
                <feMergeNode in="shadowMatrixOuter1"/>
                <feMergeNode in="SourceGraphic"/>
            </feMerge>
        </filter>
    </defs>
    <g fill="none" fill-rule="nonzero">
        <g filter="url(#a)" transform="translate(92 2)">
            <path fill="#C7EEFD" d="M156.09 69.12H8.241C3.709 69.12 0 72.824 0 77.35v117.694c0 4.526 3.71 8.23 8.242 8.23h27.057v32.477c0 4.526 2.623 5.61 5.828 2.41l34.941-34.888h113.51c4.531 0 8.241-3.704 8.241-8.23v-84.266c-20.722-4.672-37.065-20.985-41.73-41.657z"/>
            <path fill="#98E5FB" d="M17.41 195.275V77.365c0-4.535 3.834-8.245 8.518-8.245H8.518C3.832 69.12 0 72.83 0 77.365v117.91c0 4.534 3.833 8.245 8.517 8.245h17.41c-4.683 0-8.516-3.71-8.516-8.245z"/>
            <g fill="#0592FB">
                <path d="M156.184 115.432H41.66c-2.148 0-3.89-1.715-3.89-3.832 0-2.116 1.742-3.83 3.89-3.83h114.524c2.149 0 3.89 1.714 3.89 3.83 0 2.117-1.742 3.832-3.89 3.832zM156.184 139.21H41.66c-2.148 0-3.89-1.716-3.89-3.832 0-2.116 1.742-3.831 3.89-3.831h114.524c2.149 0 3.89 1.715 3.89 3.83 0 2.117-1.742 3.832-3.89 3.832zM102.11 162.989H41.66c-2.148 0-3.89-1.715-3.89-3.831 0-2.117 1.742-3.831 3.89-3.831h60.45c2.147 0 3.889 1.714 3.889 3.83 0 2.117-1.742 3.832-3.89 3.832z"/>
            </g>
            <path fill="#FDD302" d="M266 55.678c0 30.752-24.934 55.682-55.697 55.682-30.76 0-55.697-24.93-55.697-55.682C154.606 24.928 179.542 0 210.303 0 241.066 0 266 24.928 266 55.678z"/>
            <path fill="#F9C500" d="M171.066 55.678c0-27.926 20.365-51.049 46.92-55.06a55.058 55.058 0 0 0-8.23-.618c-30.459 0-55.15 24.928-55.15 55.678 0 30.752 24.691 55.682 55.15 55.682 2.797 0 5.545-.212 8.23-.618-26.555-4.012-46.92-27.137-46.92-55.064z"/>
            <path fill="#8B3D27" d="M209.823 85.44c-7.759 0-15.519-3.108-21.426-9.325-1.511-1.59-1.522-4.18-.025-5.784 1.499-1.604 3.938-1.616 5.448-.026 8.825 9.286 23.182 9.286 32.006 0 1.51-1.59 3.95-1.579 5.448.026 1.497 1.604 1.487 4.194-.025 5.784-5.906 6.217-13.666 9.325-21.426 9.325zM243.728 55.68c-2.224 0-4.026-1.65-4.026-3.688 0-2.898-2.633-5.255-5.871-5.255-3.238 0-5.872 2.357-5.872 5.255 0 2.037-1.802 3.688-4.027 3.688-2.224 0-4.026-1.65-4.026-3.688 0-6.965 6.247-12.632 13.925-12.632 7.677 0 13.924 5.666 13.924 12.632 0 2.037-1.803 3.688-4.027 3.688zM196.674 55.68c-2.224 0-4.026-1.65-4.026-3.688 0-2.898-2.635-5.255-5.872-5.255-3.238 0-5.871 2.357-5.871 5.255 0 2.037-1.803 3.688-4.027 3.688s-4.026-1.65-4.026-3.688c0-6.965 6.246-12.632 13.924-12.632 7.678 0 13.924 5.666 13.924 12.632 0 2.037-1.802 3.688-4.026 3.688z"/>
            <path fill="#0592FB" d="M0 41.534c0 1.444 1.204 2.626 2.676 2.626h106.042c1.471 0 2.676-1.182 2.676-2.626V10.306c0-1.444-1.205-2.626-2.676-2.626H2.676C1.204 7.68 0 8.862 0 10.306v31.228z"/>
            <path fill="#0181FB" d="M17.392 41.534V10.306c0-1.444 1.248-2.626 2.774-2.626H2.774C1.248 7.68 0 8.862 0 10.306v31.228c0 1.444 1.248 2.626 2.774 2.626h17.392c-1.526 0-2.774-1.182-2.774-2.626z"/>
            <path fill="#62DAFA" d="M89.23 29.76H18.322c-2.163 0-3.918-1.719-3.918-3.84 0-2.121 1.755-3.84 3.918-3.84H89.23c2.164 0 3.918 1.719 3.918 3.84 0 2.121-1.754 3.84-3.918 3.84z"/>
        </g>
        <path fill="#C7EEFD" d="M61.025 84.944A1.948 1.948 0 0 0 59.074 83H4.977c-1.078 0-1.952.87-1.952 1.944v53.909c0 1.073.874 1.945 1.952 1.945h20.59l4.768 8.23a1.954 1.954 0 0 0 3.38 0l4.769-8.23h20.59a1.949 1.949 0 0 0 1.951-1.945V84.944z"/>
        <path fill="#98E5FB" d="M48.994 138.082V114.17l.628-.606c2.262-2.182 3.508-5.088 3.508-8.182 0-3.096-1.247-6.003-3.51-8.183-.202-.195-.412-.38-.626-.559V84.917c0-1.058-.881-1.917-1.969-1.917h12.031c1.088 0 1.97.859 1.97 1.917v53.165c0 1.058-.882 1.918-1.97 1.918h-12.03c1.087 0 1.968-.86 1.968-1.918z"/>
        <path fill="#FD646F" d="M32.525 126c.478 0 .924-.183 1.26-.513l14.59-14.329a8.736 8.736 0 0 0 2.65-6.279c0-2.37-.94-4.601-2.65-6.276A9.055 9.055 0 0 0 41.982 96a9.074 9.074 0 0 0-6.396 2.603l-3.06 3.005-3.064-3.005A9.067 9.067 0 0 0 23.067 96a9.065 9.065 0 0 0-6.394 2.603 8.737 8.737 0 0 0-2.648 6.276c0 2.372.941 4.602 2.648 6.28l14.593 14.328c.337.33.785.513 1.26.513z"/>
        <path fill="#FC4755" d="M38.6 107.786a8.76 8.76 0 0 0 2.635-6.278 8.728 8.728 0 0 0-1.678-5.162A9.104 9.104 0 0 1 42.032 96a8.98 8.98 0 0 1 6.358 2.603 8.753 8.753 0 0 1 2.635 6.276 8.76 8.76 0 0 1-2.635 6.28L33.88 125.486c-.334.33-.778.513-1.254.513a1.78 1.78 0 0 1-1.252-.513l-5.35-5.282L38.6 107.786zM214.025 243.945a1.949 1.949 0 0 0-1.951-1.945h-54.097a1.948 1.948 0 0 0-1.952 1.945v53.908c0 1.074.874 1.945 1.952 1.945h20.59l4.768 8.23a1.952 1.952 0 0 0 3.38 0l4.769-8.23h20.59c1.077 0 1.951-.871 1.951-1.945v-53.908z"/>
        <path fill="#FFF" d="M185.525 286c.478 0 .924-.183 1.26-.513l14.59-14.329a8.735 8.735 0 0 0 2.65-6.279c0-2.37-.94-4.601-2.65-6.276a9.054 9.054 0 0 0-6.393-2.603 9.075 9.075 0 0 0-6.396 2.603l-3.06 3.006-3.064-3.006a9.067 9.067 0 0 0-6.394-2.603 9.066 9.066 0 0 0-6.395 2.603 8.739 8.739 0 0 0-2.648 6.276c0 2.372.941 4.602 2.648 6.28l14.593 14.328c.336.33.784.513 1.259.513z"/>
        <path fill="#D8E6EB" d="M191 264.914a8.814 8.814 0 0 0 2.603-6.28c0-.888-.13-1.757-.38-2.585a8.808 8.808 0 0 1 7.2 2.554 8.807 8.807 0 0 1 2.602 6.276 8.814 8.814 0 0 1-2.603 6.28l-14.326 14.328a1.747 1.747 0 0 1-2.475 0l-6.596-6.596L191 264.914z"/>
        <path fill="#000" d="M155.885 262.935c-1.58 0-2.86-1.267-2.86-2.83v-15.35c0-2.622 2.163-4.755 4.821-4.755h54.358c2.658 0 4.821 2.133 4.821 4.756v53.377c0 2.622-2.163 4.756-4.82 4.756H193.16l-3.963 6.74a4.847 4.847 0 0 1-4.172 2.371 4.848 4.848 0 0 1-4.17-2.37l-3.964-6.741h-19.045c-2.658 0-4.82-2.133-4.82-4.756v-24.822c0-1.563 1.28-2.83 2.86-2.83 1.58 0 2.86 1.267 2.86 2.83v23.918h19.79c1.019 0 1.96.536 2.472 1.407l4.017 6.832 4.018-6.833a2.865 2.865 0 0 1 2.471-1.406h19.79v-51.57h-52.56v14.446c.001 1.563-1.28 2.83-2.859 2.83z"/>
        <path fill="#000" d="M183.995 257.356l1.03 1.007 1.03-1.008a11.749 11.749 0 0 1 8.262-3.355c3.121 0 6.055 1.193 8.258 3.354 2.225 2.172 3.45 5.066 3.45 8.151 0 3.084-1.224 5.98-3.447 8.151l-14.336 14.037a4.576 4.576 0 0 1-3.217 1.307 4.584 4.584 0 0 1-3.218-1.308l-14.338-14.036c-2.22-2.175-3.444-5.07-3.444-8.15 0-3.083 1.224-5.977 3.445-8.15a11.739 11.739 0 0 1 8.263-3.356c3.118 0 6.052 1.192 8.262 3.356zm-14.324 8.15a5.77 5.77 0 0 0 1.76 4.148l13.595 13.31 13.595-13.311a5.762 5.762 0 0 0-.003-8.295 6.098 6.098 0 0 0-4.3-1.741c-1.627 0-3.156.619-4.305 1.742l-3.007 2.944a2.834 2.834 0 0 1-3.96.001l-3.01-2.945a6.111 6.111 0 0 0-4.303-1.742 6.111 6.111 0 0 0-4.304 1.743 5.761 5.761 0 0 0-1.758 4.145zM59.205 142.889H40.16l-3.964 6.742a4.849 4.849 0 0 1-4.17 2.369 4.849 4.849 0 0 1-4.17-2.37l-3.964-6.741H4.846c-2.658 0-4.82-2.133-4.82-4.756V84.755C.025 82.133 2.187 80 4.845 80h54.359c2.658 0 4.82 2.133 4.82 4.755v53.378c0 2.623-2.162 4.756-4.82 4.756zm-.9-57.229H5.745v51.569h19.791c1.019 0 1.96.536 2.472 1.407l4.017 6.832 4.018-6.832a2.865 2.865 0 0 1 2.471-1.407h19.791V85.66z"/>
        <path fill="#000" d="M32.025 129a4.58 4.58 0 0 1-3.218-1.309L14.47 113.656c-2.22-2.175-3.444-5.07-3.444-8.15 0-3.083 1.224-5.978 3.445-8.15A11.739 11.739 0 0 1 22.732 94c3.118 0 6.053 1.192 8.262 3.355l1.03 1.007 1.03-1.007A11.748 11.748 0 0 1 41.317 94c3.12 0 6.055 1.192 8.259 3.353 2.224 2.173 3.45 5.067 3.45 8.152 0 3.082-1.225 5.978-3.448 8.15l-14.336 14.036A4.57 4.57 0 0 1 32.025 129zm15.355-23.495a5.76 5.76 0 0 0-1.763-4.148 6.1 6.1 0 0 0-4.3-1.74c-1.626 0-3.155.618-4.305 1.742l-3.007 2.944a2.834 2.834 0 0 1-3.959 0l-3.01-2.944a6.11 6.11 0 0 0-4.304-1.743 6.111 6.111 0 0 0-4.304 1.744 5.77 5.77 0 0 0 .001 8.293l13.596 13.31 13.595-13.31a5.763 5.763 0 0 0 1.76-4.148z"/>
    </g>
</svg>
