<svg xmlns="http://www.w3.org/2000/svg" xmlns:xlink="http://www.w3.org/1999/xlink" width="58" height="58" viewBox="0 0 58 58">
    <defs>
        <linearGradient id="c" x1="0%" y1="0%" y2="100%">
            <stop offset="0%" stop-color="#F2C314"/>
            <stop offset="100%" stop-color="#FC3832"/>
        </linearGradient>
        <path id="b" d="M17.947 0h14.106c6.24 0 8.503.65 10.785 1.87a12.721 12.721 0 0 1 5.292 5.292C49.35 9.444 50 11.707 50 17.947v14.106c0 6.24-.65 8.503-1.87 10.785a12.721 12.721 0 0 1-5.292 5.292C40.556 49.35 38.293 50 32.053 50H17.947c-6.24 0-8.503-.65-10.785-1.87a12.721 12.721 0 0 1-5.292-5.292C.65 40.556 0 38.293 0 32.053V17.947c0-6.24.65-8.503 1.87-10.785A12.721 12.721 0 0 1 7.162 1.87C9.444.65 11.707 0 17.947 0z"/>
        <filter id="a" width="128%" height="128%" x="-14%" filterUnits="objectBoundingBox">
            <feOffset dy="2" in="SourceAlpha" result="shadowOffsetOuter1"/>
            <feGaussianBlur in="shadowOffsetOuter1" result="shadowBlurOuter1" stdDeviation="2"/>
            <feColorMatrix in="shadowBlurOuter1" values="0 0 0 0 0.501960784 0 0 0 0 0.125490196 0 0 0 0 0 0 0 0 0.15 0"/>
        </filter>
    </defs>
    <g fill="none" fill-rule="evenodd">
        <g transform="translate(4 2)">
            <use fill="#000" filter="url(#a)" xlink:href="#b"/>
            <use fill="url(#c)" xlink:href="#b"/>
        </g>
        <path fill="#FFF" fill-rule="nonzero" d="M28.554 35.418v-2.68c-1.1-.204-1.932-1.143-1.932-2.271 0-.468.143-.903.388-1.267l-2.32-1.662-2.322 1.662a2.254 2.254 0 0 1-.005 2.541l5.28 4.05c.268-.182.577-.311.911-.373zm.892 0c.334.062.643.191.912.373l5.28-4.05a2.254 2.254 0 0 1-.006-2.54l-2.321-1.663L30.99 29.2c.245.364.388.8.388 1.267 0 1.128-.832 2.067-1.932 2.27v2.681zm1.538.997c.25.365.394.803.394 1.274C31.378 38.965 30.314 40 29 40s-2.378-1.035-2.378-2.311c0-.471.145-.91.394-1.274l-5.28-4.05c-.385.26-.853.413-1.358.413-1.313 0-2.378-1.035-2.378-2.311 0-1.129.832-2.068 1.932-2.27v-2.393C18.832 25.6 18 24.662 18 23.534c0-1.277 1.065-2.312 2.378-2.312.505 0 .973.153 1.358.414l5.28-4.05a2.254 2.254 0 0 1-.394-1.275C26.622 15.035 27.686 14 29 14s2.378 1.035 2.378 2.311c0 .471-.145.91-.394 1.274l5.28 4.05c.385-.26.853-.413 1.358-.413 1.313 0 2.378 1.035 2.378 2.311 0 1.129-.832 2.068-1.932 2.27v2.393c1.1.203 1.932 1.142 1.932 2.27 0 1.277-1.065 2.312-2.378 2.312-.505 0-.973-.153-1.358-.414l-5.28 4.05zm-9.243-7.843L23.937 27l-2.196-1.572c-.27.183-.58.314-.917.376v2.392c.336.062.647.193.917.376zm.627-3.772l2.321 1.662L27.01 24.8a2.254 2.254 0 0 1-.388-1.267c0-1.128.832-2.067 1.932-2.27v-2.681a2.403 2.403 0 0 1-.912-.373l-5.28 4.05a2.254 2.254 0 0 1 .006 2.54zm13.89 3.772c.27-.183.582-.314.918-.376v-2.392a2.403 2.403 0 0 1-.917-.376L34.063 27l2.196 1.572zm-.62-6.313l-5.28-4.05a2.403 2.403 0 0 1-.912.373v2.68c1.1.204 1.932 1.143 1.932 2.271 0 .468-.143.903-.388 1.267l2.32 1.662 2.322-1.662a2.254 2.254 0 0 1 .005-2.541zm-8 6.313A2.415 2.415 0 0 1 29 28.156c.507 0 .977.154 1.363.416L32.559 27l-2.196-1.572a2.415 2.415 0 0 1-1.363.416c-.507 0-.977-.154-1.363-.416L25.441 27l2.196 1.572zM29 24.978c.821 0 1.486-.647 1.486-1.445 0-.797-.665-1.444-1.486-1.444s-1.486.647-1.486 1.444c0 .798.665 1.445 1.486 1.445zm0 6.933c.821 0 1.486-.647 1.486-1.444 0-.798-.665-1.445-1.486-1.445s-1.486.647-1.486 1.445c0 .797.665 1.444 1.486 1.444zm8.622-6.933c.82 0 1.486-.647 1.486-1.445 0-.797-.665-1.444-1.486-1.444s-1.487.647-1.487 1.444c0 .798.666 1.445 1.487 1.445zm0 6.933c.82 0 1.486-.647 1.486-1.444 0-.798-.665-1.445-1.486-1.445s-1.487.647-1.487 1.445c0 .797.666 1.444 1.487 1.444zm-17.244-6.933c.821 0 1.487-.647 1.487-1.445 0-.797-.666-1.444-1.487-1.444-.82 0-1.486.647-1.486 1.444 0 .798.665 1.445 1.486 1.445zm0 6.933c.821 0 1.487-.647 1.487-1.444 0-.798-.666-1.445-1.487-1.445-.82 0-1.486.647-1.486 1.445 0 .797.665 1.444 1.486 1.444zM29 39.133c.821 0 1.486-.646 1.486-1.444 0-.798-.665-1.445-1.486-1.445s-1.486.647-1.486 1.445.665 1.444 1.486 1.444zm0-21.377c.821 0 1.486-.647 1.486-1.445s-.665-1.444-1.486-1.444-1.486.646-1.486 1.444c0 .798.665 1.445 1.486 1.445z"/>
    </g>
</svg>
