<svg xmlns="http://www.w3.org/2000/svg" width="20" height="20" viewBox="0 0 20 20">
    <g fill="none" fill-rule="nonzero" opacity=".5">
        <circle cx="10" cy="10" r="10" fill="#B64597"/>
        <path fill="#480536" d="M13.811 7.236c-.041-.174-.125-.359-.187-.52C12.88 4.716 11.257 4 9.946 4 8.191 4 6.258 5.317 6 8.033v.555c0 .023.007.23.017.335.145 1.294 1.057 2.67 1.738 3.963.733 1.387 1.494 2.75 2.247 4.114.465-.89.928-1.791 1.382-2.658.124-.254.267-.508.391-.751.083-.162.24-.323.312-.474C12.82 11.615 14 10.101 14 8.611v-.613c0-.161-.179-.728-.189-.762zM9.978 10.02c-.516 0-1.08-.29-1.36-1.087-.04-.127-.037-.381-.037-.404V8.17c0-1.016.77-1.479 1.442-1.479.825 0 1.464.74 1.464 1.665 0 .924-.683 1.664-1.509 1.664z"/>
    </g>
</svg>
