<svg xmlns="http://www.w3.org/2000/svg" width="42" height="42" viewBox="0 0 42 42">
    <defs>
        <linearGradient id="a" x1="100%" x2="50%" y1="-17.342%" y2="124.099%">
            <stop offset="0%" stop-color="#68BBE4"/>
            <stop offset="100%" stop-color="#1B2874"/>
        </linearGradient>
    </defs>
    <g fill="none" fill-rule="nonzero">
        <path fill="url(#a)" d="M41.667 20.833c0 11.505-9.33 20.834-20.834 20.834S0 32.337 0 20.833 9.33 0 20.833 0c11.505 0 20.834 9.33 20.834 20.833z"/>
        <path fill="#FFF" d="M28.837 20.695l-2.583 1.5-7.056-12.14a1.02 1.02 0 0 1 .37-1.393l.826-.48a1.013 1.013 0 0 1 1.387.37l7.056 12.143zm-2.295 2.002l2.583-1.501 1.498 2.572-2.583 1.5-1.498-2.571zM10.25 25.158l6.238-10.673 2.661 1.555-6.238 10.672-2.661-1.554zM8.63 30.6l1.286-4.87 2.661 1.557-3.613 3.508a.196.196 0 0 1-.24.032.199.199 0 0 1-.094-.227zm8.073-16.488l.9-1.53a1.014 1.014 0 0 1 1.39-.366l.904.529c.484.284.647.907.362 1.391l-.894 1.535-2.662-1.559zm13.53 10.45c-.42.239-1.047.61-1.416.83-.692.411-.159 1.624 0 1.884.894 1.501 1.818 1.29 2.514 2.352.383.582.277.839.395 1.033.049.07.199.139.256.058 1.074-1.486.76-4.04-.02-5.18-.362-.534-1.021-1.38-1.73-.978zm3.764-2.259h-3.712l-1.62-2.974h5.33v2.974h.002zm-8.354 0h-9.68l1.652-2.974h6.376l1.652 2.974zm-14.242 0H7.633v-2.974h5.53l-1.762 2.974z"/>
    </g>
</svg>
